# xmcd CD database file
#
# Track frame offsets:
#	150
#	22738
#	50836
#	72287
#	98905
#	124271
#	143632
#	173817
#	197204
#
# Disc length: 2885 seconds
#
# Revision: 0
# Processed by: cddbd v1.5.1PL2 Copyright (c) Steve Scherf et al.
# Submitted via: CDex 1.51
#
DISCID=7d0b4309
DTITLE=Herwig Gradischnig, Oliver Kent - Day-Dream
DYEAR=2003
DGENRE=Jazz
TTITLE0=I Let a Song Go Out of My Heart 
TTITLE1=Day-Dream
TTITLE2=Melancholia
TTITLE3=U.M.M.G
TTITLE4=A Flower Is a Lonesome Thing
TTITLE5=Jonny Come Lately
TTITLE6=Lush Life
TTITLE7=Isfahan
TTITLE8=The Voodo Of No Babes Blues
EXTD=YEAR: 2003
EXTT0=
EXTT1=
EXTT2=
EXTT3=
EXTT4=
EXTT5=
EXTT6=
EXTT7=
EXTT8=
PLAYORDER=
